<svg xmlns="http://www.w3.org/2000/svg" xmlns:xlink="http://www.w3.org/1999/xlink" width="500" height="473" viewBox="0 0 500 473">
  <defs>
    <path id="icon@2x-a" d="M55.1121076,0 L151.811659,0 C156.229937,-8.11624501e-16 159.811659,3.581722 159.811659,8 L159.811659,78.0520934 C159.811659,109.173215 134.583005,134.401869 103.461883,134.401869 L103.461883,134.401869 C72.3407616,134.401869 47.1121076,109.173215 47.1121076,78.0520934 L47.1121076,8 C47.1121076,3.581722 50.6938296,8.11624501e-16 55.1121076,0 Z"/>
  </defs>
  <g fill="none" fill-rule="evenodd">
    <ellipse cx="250" cy="236.5" fill="#F4F4F4" rx="94" ry="93.5"/>
    <g transform="translate(147 138)">
      <path stroke="#FFD843" stroke-width="16" d="M56.3241324,82.7079814 C56.1462408,81.844477 55.9472419,80.935463 55.7269802,79.9818678 L55.5217492,79.0933459 L55.5217492,26.411215 L8.48094843,26.411215 C8.16588903,30.1781156 8,32.5735132 8,33.0911546 C8,34.0440048 8.11702646,35.0411725 8.35530271,36.0887999 C10.2068174,44.2293409 18.8076346,54.1372452 32.929533,65.3875581 C37.4429815,68.9832295 41.0893831,71.6727635 48.6637367,77.1062277 C52.2551748,79.6825466 54.6074386,81.3901002 56.3241324,82.7079814 Z"/>
      <path stroke="#FFC300" stroke-width="16" d="M196.647665,26.411215 L149.431622,26.411215 L149.431622,79.095817 L149.225291,79.9866209 C149.002072,80.9503417 148.800637,81.8685053 148.620825,82.7401499 C150.346383,81.4171842 152.715844,79.7016096 156.352483,77.1001016 C163.948177,71.6664422 167.604926,68.9767569 172.131265,65.3808182 C186.292646,54.1303437 194.918375,44.2213036 196.774276,36.0841087 C197.012887,35.0379193 197.130053,34.0423351 197.130053,33.0911546 C197.130053,32.5659028 196.963752,30.1833362 196.647665,26.411215 Z"/>
      <path fill="#FFC300" d="M171.820628,195.619159 C171.820628,176.878711 141.215375,161.098131 103.461883,161.098131 C65.7083914,161.098131 35.103139,176.553722 35.103139,195.619159 C35.103139,196.232866 57.8893871,196.53972 103.461883,196.53972 C149.03438,196.232866 171.820628,195.926012 171.820628,195.619159 Z"/>
      <path fill="#FFC300" d="M94.8443415,133.517575 C68.4411918,125.516218 136.843183,124.261177 113.951043,133.517575 C113.43333,133.726912 113.951043,135.452395 113.951043,136.577366 C113.951043,140.034054 113.951043,147.285069 113.951043,158.330413 C113.951043,159.109799 115.467612,160.757733 118.500749,163.274216 L89.8406973,163.274216 C93.1764601,160.7182 94.8443415,159.041852 94.8443415,158.245172 C94.8443415,147.300113 94.8443415,140.128252 94.8443415,136.729591 C94.8443415,135.536084 95.4851256,133.711762 94.8443415,133.517575 Z"/>
      <mask id="icon@2x-b" fill="#fff">
        <use xlink:href="#icon@2x-a"/>
      </mask>
      <use fill="#FFD843" xlink:href="#icon@2x-a"/>
      <polygon fill="#FFC300" points="103.462 67.201 159.812 0 159.812 134.402 47.112 134.402" mask="url(#icon@2x-b)"/>
    </g>
  </g>
</svg>
